<svg id="Lager_1" data-name="Lager 1" xmlns="http://www.w3.org/2000/svg" viewBox="0 0 199.43 199.43"><defs><style>.cls-1{font-size:110px;fill:#323232;font-family:MonotypeCorsiva, Monotype Corsiva;}.cls-2{fill:none;stroke:#333;stroke-miterlimit:10;}.cls-3{font-size:12px;}.cls-3,.cls-4{fill:#353131;font-family:MyanmarSangamMN-Bold, Myanmar Sangam MN;font-weight:700;}.cls-4{font-size:20px;}.cls-5{fill:#333;}</style></defs><title>Namnlöst-1</title><text class="cls-1" transform="translate(56.92 126.28)">B</text><circle class="cls-2" cx="99.71" cy="99.71" r="99.21"/><text class="cls-3" transform="translate(18.99 124.22) rotate(70.77)">P</text><text class="cls-3" transform="translate(28.45 144.85) rotate(55.14)">R</text><text class="cls-3" transform="matrix(0.78, 0.63, -0.63, 0.78, 43.45, 162.59)">O</text><text class="cls-3" transform="matrix(0.92, 0.38, -0.38, 0.92, 63.93, 176.12)">D</text><text class="cls-3" transform="translate(86.64 183.05) rotate(6.34)">U</text><text class="cls-3" transform="translate(109.86 183.46) rotate(-9.45)">K</text><text class="cls-3" transform="matrix(0.9, -0.43, 0.43, 0.9, 132.7, 177.37)">T</text><text class="cls-3" transform="translate(152.32 165.56) rotate(-39.68)">I</text><text class="cls-3" transform="translate(165.46 152.6) rotate(-54.02)">O</text><text class="cls-3" transform="translate(177.87 131.48) rotate(-70.44)">N</text><text class="cls-4" transform="translate(32.21 77.25) rotate(-66.68)">B</text><text class="cls-4" transform="translate(46.56 52.46) rotate(-43.48)">R</text><text class="cls-4" transform="translate(69.43 35.23) rotate(-19.47)">O</text><text class="cls-4" transform="matrix(1, 0.08, -0.08, 1, 99.27, 28.57)">H</text><text class="cls-4" transform="translate(127.81 34.59) rotate(25.42)">I</text><text class="cls-4" transform="matrix(0.7, 0.71, -0.71, 0.7, 146.35, 46.1)">L</text><text class="cls-4" transform="translate(163.05 67.46) rotate(67.23)">L</text><circle class="cls-5" cx="18.77" cy="99.71" r="2.83"/><circle class="cls-5" cx="180.27" cy="99.71" r="2.83"/></svg>